<svg data-v-fde0c5aa="" xmlns="http://www.w3.org/2000/svg" viewBox="0 0 300 300" class="iconLeft"><!----><defs data-v-fde0c5aa=""><!----></defs><rect data-v-fde0c5aa="" fill="#353922" x="0" y="0" width="300px" height="300px" class="logo-background-square"></rect><defs data-v-fde0c5aa=""><!----></defs><g data-v-fde0c5aa="" id="be92783a-b148-44f2-b27e-02f6d77091e4" fill="#FFFFFF" transform="matrix(2.049734087895704,0,0,2.049734087895704,97.21013006726609,135.89782948505143)"><path d="M4.35 10.50L1.16 10.50L1.16 1.36L3.85 1.36L3.85 1.36Q4.86 1.36 5.75 1.67L5.75 1.67L5.75 1.67Q6.64 1.97 7.29 2.55L7.29 2.55L7.29 2.55Q7.95 3.14 8.34 3.97L8.34 3.97L8.34 3.97Q8.72 4.80 8.72 5.85L8.72 5.85L8.72 5.85Q8.72 6.83 8.41 7.68L8.41 7.68L8.41 7.68Q8.11 8.53 7.54 9.16L7.54 9.16L7.54 9.16Q6.97 9.79 6.17 10.14L6.17 10.14L6.17 10.14Q5.36 10.50 4.35 10.50L4.35 10.50ZM2.56 2.59L2.56 9.28L4.24 9.28L4.24 9.28Q4.84 9.28 5.39 9.02L5.39 9.02L5.39 9.02Q5.94 8.76 6.34 8.30L6.34 8.30L6.34 8.30Q6.75 7.84 6.99 7.22L6.99 7.22L6.99 7.22Q7.22 6.59 7.22 5.85L7.22 5.85L7.22 5.85Q7.22 5.11 7.01 4.51L7.01 4.51L7.01 4.51Q6.79 3.91 6.40 3.48L6.40 3.48L6.40 3.48Q6.01 3.05 5.48 2.82L5.48 2.82L5.48 2.82Q4.96 2.59 4.35 2.59L4.35 2.59L2.56 2.59ZM14.69 3.30L14.69 4.47L14.69 4.47Q14.59 4.44 14.48 4.41L14.48 4.41L14.48 4.41Q14.38 4.38 14.26 4.36L14.26 4.36L14.26 4.36Q14.14 4.34 14.03 4.34L14.03 4.34L14.03 4.34Q13.43 4.34 13.03 4.61L13.03 4.61L13.03 4.61Q12.64 4.89 12.42 5.31L12.42 5.31L12.42 5.31Q12.19 5.73 12.10 6.24L12.10 6.24L12.10 6.24Q12.01 6.76 12.01 7.25L12.01 7.25L12.01 10.50L10.70 10.50L10.70 3.36L11.82 3.36L11.97 4.47L11.97 4.47Q12.17 4.12 12.40 3.84L12.40 3.84L12.40 3.84Q12.64 3.57 12.96 3.40L12.96 3.40L12.96 3.40Q13.29 3.23 13.71 3.20L13.71 3.20L13.71 3.20Q14.13 3.16 14.69 3.30L14.69 3.30ZM19.52 10.67L19.52 10.67L19.52 10.67Q18.31 10.67 17.56 10.31L17.56 10.31L17.56 10.31Q16.81 9.95 16.39 9.39L16.39 9.39L16.39 9.39Q15.97 8.83 15.82 8.14L15.82 8.14L15.82 8.14Q15.67 7.45 15.67 6.78L15.67 6.78L15.67 6.78Q15.67 6.10 15.88 5.46L15.88 5.46L15.88 5.46Q16.10 4.82 16.51 4.31L16.51 4.31L16.51 4.31Q16.93 3.81 17.53 3.50L17.53 3.50L17.53 3.50Q18.13 3.19 18.91 3.19L18.91 3.19L18.91 3.19Q19.85 3.19 20.48 3.52L20.48 3.52L20.48 3.52Q21.11 3.85 21.49 4.38L21.49 4.38L21.49 4.38Q21.87 4.90 22.02 5.54L22.02 5.54L22.02 5.54Q22.18 6.17 22.18 6.78L22.18 6.78L22.18 7.22L17.07 7.22L17.07 7.22Q17.12 7.90 17.37 8.41L17.37 8.41L17.37 8.41Q17.49 8.64 17.65 8.86L17.65 8.86L17.65 8.86Q17.82 9.07 18.07 9.24L18.07 9.24L18.07 9.24Q18.31 9.41 18.63 9.51L18.63 9.51L18.63 9.51Q18.96 9.60 19.38 9.60L19.38 9.60L19.38 9.60Q19.82 9.60 20.22 9.50L20.22 9.50L20.22 9.50Q20.62 9.39 20.93 9.27L20.93 9.27L20.93 9.27Q21.29 9.11 21.60 8.92L21.60 8.92L21.62 10.12L21.62 10.12Q21.62 10.12 21.45 10.21L21.45 10.21L21.45 10.21Q21.29 10.30 21.01 10.40L21.01 10.40L21.01 10.40Q20.73 10.50 20.35 10.58L20.35 10.58L20.35 10.58Q19.96 10.67 19.52 10.67ZM17.07 6.24L20.78 6.24L20.78 6.24Q20.78 5.89 20.67 5.54L20.67 5.54L20.67 5.54Q20.57 5.18 20.34 4.89L20.34 4.89L20.34 4.89Q20.12 4.61 19.77 4.43L19.77 4.43L19.77 4.43Q19.42 4.26 18.91 4.26L18.91 4.26L18.91 4.26Q18.48 4.26 18.14 4.43L18.14 4.43L18.14 4.43Q17.79 4.61 17.56 4.89L17.56 4.89L17.56 4.89Q17.32 5.18 17.19 5.54L17.19 5.54L17.19 5.54Q17.07 5.89 17.07 6.24L17.07 6.24ZM26.75 3.19L26.75 3.19L26.75 3.19Q27.52 3.23 28.13 3.51L28.13 3.51L28.13 3.51Q28.38 3.64 28.63 3.82L28.63 3.82L28.63 3.82Q28.88 4.00 29.08 4.27L29.08 4.27L29.08 4.27Q29.27 4.54 29.39 4.89L29.39 4.89L29.39 4.89Q29.51 5.25 29.51 5.73L29.51 5.73L29.51 10.50L28.28 10.50L28.11 9.63L28.11 9.63Q28.11 9.63 27.97 9.80L27.97 9.80L27.97 9.80Q27.83 9.97 27.57 10.16L27.57 10.16L27.57 10.16Q27.30 10.35 26.91 10.51L26.91 10.51L26.91 10.51Q26.53 10.67 26.05 10.67L26.05 10.67L26.05 10.67Q24.89 10.67 24.18 10.14L24.18 10.14L24.18 10.14Q23.46 9.62 23.46 8.46L23.46 8.46L23.46 8.46Q23.46 7.78 23.79 7.34L23.79 7.34L23.79 7.34Q24.11 6.90 24.58 6.64L24.58 6.64L24.58 6.64Q25.05 6.38 25.57 6.29L25.57 6.29L25.57 6.29Q26.10 6.19 26.50 6.19L26.50 6.19L28.20 6.19L28.20 5.71L28.20 5.71Q28.14 5.07 27.85 4.75L27.85 4.75L27.85 4.75Q27.57 4.42 27.15 4.32L27.15 4.32L27.15 4.32Q26.74 4.21 26.26 4.29L26.26 4.29L26.26 4.29Q25.77 4.37 25.35 4.50L25.35 4.50L25.35 4.50Q24.93 4.63 24.63 4.78L24.63 4.78L24.63 4.78Q24.32 4.93 24.23 4.98L24.23 4.98L24.23 3.86L24.23 3.86Q24.63 3.68 25.05 3.53L25.05 3.53L25.05 3.53Q25.41 3.40 25.86 3.30L25.86 3.30L25.86 3.30Q26.31 3.19 26.75 3.19ZM26.17 9.60L26.17 9.60L26.17 9.60Q27.01 9.60 27.54 9.21L27.54 9.21L27.54 9.21Q28.07 8.81 28.20 8.16L28.20 8.16L28.20 7.14L27.45 7.14L27.45 7.14Q27.19 7.14 26.75 7.16L26.75 7.16L26.75 7.16Q26.31 7.18 25.89 7.29L25.89 7.29L25.89 7.29Q25.47 7.41 25.16 7.67L25.16 7.67L25.16 7.67Q24.85 7.92 24.85 8.40L24.85 8.40L24.85 8.40Q24.85 8.69 24.98 8.92L24.98 8.92L24.98 8.92Q25.10 9.14 25.29 9.30L25.29 9.30L25.29 9.30Q25.48 9.45 25.72 9.53L25.72 9.53L25.72 9.53Q25.96 9.60 26.17 9.60ZM39.48 3.19L39.48 3.19L39.48 3.19Q40.00 3.19 40.46 3.31L40.46 3.31L40.46 3.31Q40.92 3.43 41.27 3.78L41.27 3.78L41.27 3.78Q41.61 4.13 41.80 4.77L41.80 4.77L41.80 4.77Q42 5.40 42 6.43L42 6.43L42 10.50L40.67 10.50L40.67 6.29L40.67 6.29Q40.67 5.95 40.63 5.59L40.63 5.59L40.63 5.59Q40.59 5.24 40.45 4.93L40.45 4.93L40.45 4.93Q40.32 4.63 40.07 4.45L40.07 4.45L40.07 4.45Q39.82 4.26 39.41 4.26L39.41 4.26L39.41 4.26Q38.89 4.26 38.54 4.49L38.54 4.49L38.54 4.49Q38.18 4.72 37.95 5.10L37.95 5.10L37.95 5.10Q37.73 5.47 37.63 5.96L37.63 5.96L37.63 5.96Q37.53 6.45 37.53 6.96L37.53 6.96L37.53 10.50L36.20 10.50L36.20 6.29L36.20 6.29Q36.20 5.95 36.16 5.59L36.16 5.59L36.16 5.59Q36.12 5.24 35.98 4.93L35.98 4.93L35.98 4.93Q35.84 4.63 35.59 4.45L35.59 4.45L35.59 4.45Q35.35 4.26 34.94 4.26L34.94 4.26L34.94 4.26Q34.43 4.26 34.07 4.49L34.07 4.49L34.07 4.49Q33.71 4.72 33.49 5.10L33.49 5.10L33.49 5.10Q33.26 5.47 33.17 5.96L33.17 5.96L33.17 5.96Q33.07 6.45 33.07 6.96L33.07 6.96L33.07 10.50L31.75 10.50L31.75 3.36L32.84 3.36L33.05 4.41L33.05 4.41Q33.05 4.41 33.17 4.21L33.17 4.21L33.17 4.21Q33.28 4.02 33.54 3.79L33.54 3.79L33.54 3.79Q33.80 3.57 34.22 3.38L34.22 3.38L34.22 3.38Q34.65 3.19 35.28 3.19L35.28 3.19L35.28 3.19Q35.83 3.19 36.22 3.41L36.22 3.41L36.22 3.41Q36.61 3.63 36.86 3.89L36.86 3.89L36.86 3.89Q37.10 4.16 37.20 4.38L37.20 4.38L37.20 4.38Q37.31 4.59 37.31 4.59L37.31 4.59L37.31 4.59Q37.45 4.26 37.70 3.99L37.70 3.99L37.70 3.99Q37.94 3.72 38.23 3.55L38.23 3.55L38.23 3.55Q38.53 3.37 38.86 3.28L38.86 3.28L38.86 3.28Q39.19 3.19 39.48 3.19ZM48.41 3.91L47.98 4.89L47.98 4.89Q47.15 4.26 46.24 4.26L46.24 4.26L46.24 4.26Q45.74 4.26 45.44 4.46L45.44 4.46L45.44 4.46Q45.14 4.66 45.14 5.15L45.14 5.15L45.14 5.15Q45.14 5.40 45.26 5.58L45.26 5.58L45.26 5.58Q45.37 5.75 45.57 5.88L45.57 5.88L45.57 5.88Q45.77 6.01 46.02 6.10L46.02 6.10L46.02 6.10Q46.27 6.20 46.55 6.30L46.55 6.30L46.55 6.30Q46.91 6.43 47.29 6.58L47.29 6.58L47.29 6.58Q47.67 6.73 47.97 6.98L47.97 6.98L47.97 6.98Q48.27 7.22 48.46 7.59L48.46 7.59L48.46 7.59Q48.65 7.97 48.65 8.54L48.65 8.54L48.65 8.54Q48.65 9.09 48.45 9.49L48.45 9.49L48.45 9.49Q48.24 9.90 47.90 10.16L47.90 10.16L47.90 10.16Q47.56 10.42 47.12 10.54L47.12 10.54L47.12 10.54Q46.68 10.67 46.21 10.67L46.21 10.67L46.21 10.67Q45.51 10.67 44.84 10.39L44.84 10.39L44.84 10.39Q44.17 10.11 43.69 9.58L43.69 9.58L44.11 8.65L44.11 8.65Q44.56 9.10 45.13 9.35L45.13 9.35L45.13 9.35Q45.70 9.60 46.24 9.60L46.24 9.60L46.24 9.60Q46.77 9.60 47.12 9.39L47.12 9.39L47.12 9.39Q47.46 9.17 47.47 8.67L47.47 8.67L47.47 8.67Q47.47 8.40 47.36 8.20L47.36 8.20L47.36 8.20Q47.24 8.01 47.04 7.86L47.04 7.86L47.04 7.86Q46.84 7.71 46.58 7.61L46.58 7.61L46.58 7.61Q46.31 7.50 46.03 7.39L46.03 7.39L46.03 7.39Q45.67 7.27 45.30 7.11L45.30 7.11L45.30 7.11Q44.94 6.96 44.65 6.72L44.65 6.72L44.65 6.72Q44.35 6.48 44.17 6.12L44.17 6.12L44.17 6.12Q43.99 5.75 43.99 5.22L43.99 5.22L43.99 5.22Q43.99 4.68 44.18 4.29L44.18 4.29L44.18 4.29Q44.37 3.91 44.69 3.66L44.69 3.66L44.69 3.66Q45.01 3.42 45.43 3.30L45.43 3.30L45.43 3.30Q45.85 3.19 46.31 3.19L46.31 3.19L46.31 3.19Q46.89 3.19 47.43 3.38L47.43 3.38L47.43 3.38Q47.96 3.57 48.41 3.91L48.41 3.91ZM53.54 3.19L53.54 3.19L53.54 3.19Q53.98 3.19 54.31 3.24L54.31 3.24L54.31 3.24Q54.63 3.29 54.84 3.35L54.84 3.35L54.84 3.35Q55.09 3.42 55.26 3.50L55.26 3.50L55.26 4.49L55.26 4.49Q54.63 4.28 53.95 4.26L53.95 4.26L53.95 4.26Q53.27 4.23 52.70 4.48L52.70 4.48L52.70 4.48Q52.12 4.73 51.75 5.32L51.75 5.32L51.75 5.32Q51.38 5.91 51.38 6.93L51.38 6.93L51.38 6.93Q51.38 7.97 51.75 8.55L51.75 8.55L51.75 8.55Q52.12 9.14 52.70 9.39L52.70 9.39L52.70 9.39Q53.27 9.63 53.96 9.59L53.96 9.59L53.96 9.59Q54.64 9.55 55.26 9.31L55.26 9.31L55.26 10.32L55.26 10.32Q55.09 10.43 54.84 10.50L54.84 10.50L54.84 10.50Q54.63 10.57 54.31 10.62L54.31 10.62L54.31 10.62Q53.98 10.67 53.54 10.67L53.54 10.67L53.54 10.67Q53.00 10.67 52.39 10.51L52.39 10.51L52.39 10.51Q51.77 10.35 51.23 9.93L51.23 9.93L51.23 9.93Q50.69 9.51 50.34 8.78L50.34 8.78L50.34 8.78Q49.98 8.05 49.98 6.93L49.98 6.93L49.98 6.93Q49.98 5.80 50.34 5.07L50.34 5.07L50.34 5.07Q50.69 4.34 51.23 3.93L51.23 3.93L51.23 3.93Q51.77 3.51 52.39 3.35L52.39 3.35L52.39 3.35Q53.00 3.19 53.54 3.19ZM59.84 3.19L59.84 3.19L59.84 3.19Q60.61 3.23 61.21 3.51L61.21 3.51L61.21 3.51Q61.46 3.64 61.71 3.82L61.71 3.82L61.71 3.82Q61.96 4.00 62.16 4.27L62.16 4.27L62.16 4.27Q62.36 4.54 62.48 4.89L62.48 4.89L62.48 4.89Q62.59 5.25 62.59 5.73L62.59 5.73L62.59 10.50L61.36 10.50L61.19 9.63L61.19 9.63Q61.19 9.63 61.05 9.80L61.05 9.80L61.05 9.80Q60.91 9.97 60.65 10.16L60.65 10.16L60.65 10.16Q60.38 10.35 60.00 10.51L60.00 10.51L60.00 10.51Q59.61 10.67 59.14 10.67L59.14 10.67L59.14 10.67Q57.97 10.67 57.26 10.14L57.26 10.14L57.26 10.14Q56.55 9.62 56.55 8.46L56.55 8.46L56.55 8.46Q56.55 7.78 56.87 7.34L56.87 7.34L56.87 7.34Q57.19 6.90 57.66 6.64L57.66 6.64L57.66 6.64Q58.13 6.38 58.65 6.29L58.65 6.29L58.65 6.29Q59.18 6.19 59.58 6.19L59.58 6.19L61.28 6.19L61.28 5.71L61.28 5.71Q61.22 5.07 60.94 4.75L60.94 4.75L60.94 4.75Q60.65 4.42 60.24 4.32L60.24 4.32L60.24 4.32Q59.82 4.21 59.34 4.29L59.34 4.29L59.34 4.29Q58.86 4.37 58.44 4.50L58.44 4.50L58.44 4.50Q58.02 4.63 57.71 4.78L57.71 4.78L57.71 4.78Q57.40 4.93 57.32 4.98L57.32 4.98L57.32 3.86L57.32 3.86Q57.71 3.68 58.13 3.53L58.13 3.53L58.13 3.53Q58.49 3.40 58.94 3.30L58.94 3.30L58.94 3.30Q59.39 3.19 59.84 3.19ZM59.25 9.60L59.25 9.60L59.25 9.60Q60.09 9.60 60.62 9.21L60.62 9.21L60.62 9.21Q61.15 8.81 61.28 8.16L61.28 8.16L61.28 7.14L60.54 7.14L60.54 7.14Q60.27 7.14 59.83 7.16L59.83 7.16L59.83 7.16Q59.39 7.18 58.97 7.29L58.97 7.29L58.97 7.29Q58.55 7.41 58.24 7.67L58.24 7.67L58.24 7.67Q57.93 7.92 57.93 8.40L57.93 8.40L57.93 8.40Q57.93 8.69 58.06 8.92L58.06 8.92L58.06 8.92Q58.18 9.14 58.37 9.30L58.37 9.30L58.37 9.30Q58.56 9.45 58.80 9.53L58.80 9.53L58.80 9.53Q59.04 9.60 59.25 9.60ZM68.59 10.67L68.59 10.67L68.59 10.67Q67.89 10.67 67.23 10.41L67.23 10.41L67.23 10.41Q66.58 10.15 66.15 9.58L66.15 9.58L66.15 12.40L64.83 12.40L64.83 3.36L65.94 3.36L66.15 4.37L66.15 4.38L66.15 4.38Q66.35 4.05 66.68 3.79L66.68 3.79L66.68 3.79Q66.96 3.57 67.43 3.38L67.43 3.38L67.43 3.38Q67.90 3.19 68.59 3.19L68.59 3.19L68.59 3.19Q69.30 3.19 69.87 3.49L69.87 3.49L69.87 3.49Q70.43 3.79 70.83 4.30L70.83 4.30L70.83 4.30Q71.22 4.80 71.42 5.48L71.42 5.48L71.42 5.48Q71.62 6.16 71.62 6.92L71.62 6.92L71.62 6.92Q71.62 7.67 71.42 8.35L71.42 8.35L71.42 8.35Q71.22 9.03 70.83 9.55L70.83 9.55L70.83 9.55Q70.43 10.07 69.87 10.37L69.87 10.37L69.87 10.37Q69.30 10.67 68.59 10.67ZM68.29 4.26L68.29 4.26L68.29 4.26Q67.87 4.26 67.49 4.42L67.49 4.42L67.49 4.42Q67.10 4.58 66.81 4.91L66.81 4.91L66.81 4.91Q66.51 5.24 66.33 5.74L66.33 5.74L66.33 5.74Q66.15 6.24 66.15 6.92L66.15 6.92L66.15 6.92Q66.15 7.59 66.33 8.09L66.33 8.09L66.33 8.09Q66.51 8.60 66.81 8.93L66.81 8.93L66.81 8.93Q67.10 9.27 67.49 9.44L67.49 9.44L67.49 9.44Q67.87 9.60 68.29 9.60L68.29 9.60L68.29 9.60Q68.68 9.60 69.03 9.44L69.03 9.44L69.03 9.44Q69.38 9.27 69.65 8.93L69.65 8.93L69.65 8.93Q69.92 8.60 70.07 8.09L70.07 8.09L70.07 8.09Q70.22 7.59 70.22 6.92L70.22 6.92L70.22 6.92Q70.22 6.24 70.07 5.74L70.07 5.74L70.07 5.74Q69.92 5.24 69.65 4.91L69.65 4.91L69.65 4.91Q69.38 4.58 69.03 4.42L69.03 4.42L69.03 4.42Q68.68 4.26 68.29 4.26ZM76.76 10.67L76.76 10.67L76.76 10.67Q75.56 10.67 74.81 10.31L74.81 10.31L74.81 10.31Q74.06 9.95 73.64 9.39L73.64 9.39L73.64 9.39Q73.22 8.83 73.07 8.14L73.07 8.14L73.07 8.14Q72.91 7.45 72.91 6.78L72.91 6.78L72.91 6.78Q72.91 6.10 73.13 5.46L73.13 5.46L73.13 5.46Q73.35 4.82 73.76 4.31L73.76 4.31L73.76 4.31Q74.17 3.81 74.77 3.50L74.77 3.50L74.77 3.50Q75.38 3.19 76.16 3.19L76.16 3.19L76.16 3.19Q77.10 3.19 77.73 3.52L77.73 3.52L77.73 3.52Q78.36 3.85 78.74 4.38L78.74 4.38L78.74 4.38Q79.11 4.90 79.27 5.54L79.27 5.54L79.27 5.54Q79.42 6.17 79.42 6.78L79.42 6.78L79.42 7.22L74.31 7.22L74.31 7.22Q74.37 7.90 74.62 8.41L74.62 8.41L74.62 8.41Q74.73 8.64 74.90 8.86L74.90 8.86L74.90 8.86Q75.07 9.07 75.31 9.24L75.31 9.24L75.31 9.24Q75.56 9.41 75.88 9.51L75.88 9.51L75.88 9.51Q76.20 9.60 76.62 9.60L76.62 9.60L76.62 9.60Q77.07 9.60 77.47 9.50L77.47 9.50L77.47 9.50Q77.87 9.39 78.18 9.27L78.18 9.27L78.18 9.27Q78.54 9.11 78.85 8.92L78.85 8.92L78.86 10.12L78.86 10.12Q78.86 10.12 78.70 10.21L78.70 10.21L78.70 10.21Q78.54 10.30 78.26 10.40L78.26 10.40L78.26 10.40Q77.98 10.50 77.59 10.58L77.59 10.58L77.59 10.58Q77.21 10.67 76.76 10.67ZM74.31 6.24L78.02 6.24L78.02 6.24Q78.02 5.89 77.92 5.54L77.92 5.54L77.92 5.54Q77.81 5.18 77.59 4.89L77.59 4.89L77.59 4.89Q77.36 4.61 77.01 4.43L77.01 4.43L77.01 4.43Q76.66 4.26 76.16 4.26L76.16 4.26L76.16 4.26Q75.73 4.26 75.38 4.43L75.38 4.43L75.38 4.43Q75.04 4.61 74.80 4.89L74.80 4.89L74.80 4.89Q74.56 5.18 74.44 5.54L74.44 5.54L74.44 5.54Q74.31 5.89 74.31 6.24L74.31 6.24Z"></path></g><defs data-v-fde0c5aa=""><!----></defs><g data-v-fde0c5aa="" id="f4ce12e7-5062-4d50-9450-4d80d88902e8" stroke="none" fill="#98D82C" transform="matrix(1.4558694231502456,0,0,1.4558694231502456,40,126.70536100053833)"><path d="M12.289 5.343v19.9L1 13.954V5.343h11.289m1-1H0v10.026l13.289 13.289V4.343zM31 5.343v8.612L19.711 25.243v-19.9H31m1-1H18.711v23.315L32 14.369V4.343z"></path></g><!----></svg>